<svg id="Layer_1" data-name="Layer 1" xmlns="http://www.w3.org/2000/svg" viewBox="0 0 164.34 48"><title>2020-model-flash</title><path d="M0,36.9,16.4,24.26c4.06-3.23,5.71-5.32,5.71-8,0-2.85-1.95-4.55-4.95-4.55s-5.26,1.76-8.7,5.74L.25,10.61C5,4.48,9.65,1.13,18.1,1.13c9.58,0,16.21,5.75,16.21,14.09v.12c0,7.08-3.64,10.75-10.13,15.48l-7.52,5.32h18v10H0Z" style="fill:#ff5000"/><path d="M39.58,24.13V24c0-12.52,7.88-23,20.34-23S80.11,11.37,80.11,23.87V24c0,12.5-7.78,23-20.27,23S39.58,36.64,39.58,24.13Zm28.37,0V24c0-7.08-3.25-12.2-8.11-12.2s-8,5-8,12.06V24c0,7.07,3.25,12.13,8.1,12.13S68,31.14,68,24.13Z" style="fill:#ff5000"/><path d="M83.89,36.9,100.3,24.26c4-3.23,5.7-5.32,5.7-8,0-2.85-1.94-4.55-4.94-4.55s-5.27,1.76-8.71,5.74l-8.2-6.88c4.7-6.13,9.39-9.48,17.84-9.48,9.58,0,16.21,5.75,16.21,14.09v.12c0,7.08-3.64,10.75-10.13,15.48l-7.52,5.32h18v10H83.89Z" style="fill:#ff5000"/><path d="M123.47,24.13V24c0-12.52,7.88-23,20.35-23S164,11.37,164,23.87V24c0,12.5-7.78,23-20.27,23S123.47,36.64,123.47,24.13Zm28.37,0V24c0-7.08-3.25-12.2-8.11-12.2s-8,5-8,12.06V24c0,7.07,3.25,12.13,8.11,12.13S151.84,31.14,151.84,24.13Z" style="fill:#ff5000"/></svg>