<svg xmlns="http://www.w3.org/2000/svg" viewBox="0 0 456.53 50"><title>93-head</title><g id="Decals"><polygon points="59.98 1.14 60.15 1.33 63.12 4.66 63.33 4.9 63.23 5.21 59.74 15.9 59.62 16.29 59.21 16.28 43.43 16.24 42.66 16.24 42.9 15.51 45.06 8.9 26.72 8.89 18.93 32.73 37.21 32.74 40.12 23.83 40.25 23.44 40.66 23.44 56.49 23.49 57.25 23.49 57.02 24.22 52.95 36.67 52.9 36.85 52.75 36.96 47.22 40.9 47.07 41.01 46.89 41.01 4.86 41.01 4.61 41.01 4.44 40.82 0.88 36.88 0.67 36.63 0.77 36.33 11.04 4.86 11.1 4.67 11.28 4.56 16.64 1.22 16.78 1.14 16.94 1.14 59.73 1.14 59.98 1.14"/><path d="M126.3,1.14l.17.23,2.68,3.71.16.23-.08.27-3.52,10.76-.06.2-.19.11-6.72,3.83,4,3.58.27.25-.11.34-5.27,16-.12.38H100.59l.24-.73L106.18,24H88.47L83,40.62l-.12.38H65.25l.24-.73L78.15,1.52l.13-.38h48m-18,15.56,2.46-7.53h-18l-2.46,7.53h18"/><polygon points="194.77 1.14 194.53 1.87 183.15 36.67 183.09 36.85 182.93 36.96 177.17 40.91 177.03 41.01 176.86 41.01 135.01 41.01 134.75 41.01 134.58 40.81 131.25 36.86 131.05 36.62 131.15 36.33 142.49 1.52 142.61 1.14 143.02 1.14 159.07 1.14 159.84 1.14 159.6 1.87 149.26 32.94 167.38 32.95 177.64 1.52 177.77 1.14 178.17 1.14 194 1.14 194.77 1.14"/><polygon points="322.76 1.14 322.52 1.87 309.85 40.62 309.72 41.01 309.32 41.01 293.5 41.01 292.73 41.01 292.97 40.27 298.11 24.67 279.99 24.65 274.75 40.62 274.62 41.01 274.22 41.01 258.34 41.01 257.57 41.01 257.81 40.27 270.48 1.52 270.61 1.14 271.01 1.14 286.88 1.14 287.65 1.14 287.41 1.87 282.58 16.69 300.7 16.7 305.64 1.52 305.76 1.14 306.17 1.14 321.99 1.14 322.76 1.14"/><polygon points="253.44 1.14 253.61 1.37 256.08 4.7 256.25 4.93 256.16 5.21 253.6 13.05 236.59 13.07 237.84 9.23 219.51 9.21 217.79 14.54 247.15 16.8 247.34 16.82 247.48 16.97 250.82 20.69 251.03 20.93 250.93 21.23 245.89 36.67 245.84 36.82 245.72 36.92 241.15 40.87 240.99 41.01 240.78 41.01 197.22 41.01 196.94 41.01 196.78 40.78 193.81 36.84 193.63 36.6 193.73 36.32 196.34 28.73 213.15 28.73 211.9 32.56 230.95 32.57 232.94 26.08 203.33 23.53 203.16 23.5 203.03 23.38 199.31 19.78 199.06 19.54 199.17 19.2 203.93 4.86 203.99 4.68 204.15 4.57 209.19 1.23 209.33 1.14 209.49 1.14 253.16 1.14 253.44 1.14"/><polygon points="349.01 1.27 348.69 1.5 343.96 4.84 343.63 5.07 343.54 5.34 340.79 13.19 357.8 13.2 359.14 9.36 377.48 9.35 375.6 14.67 344.72 16.93 344.5 16.96 344.27 17.11 338.42 20.82 338.04 21.07 337.93 21.37 332.54 36.81 332.48 36.96 332.53 37.06 334.44 41.01 334.51 41.14 334.71 41.14 378.28 41.14 378.55 41.14 378.87 40.92 384.5 36.97 384.84 36.73 384.94 36.45 387.45 28.87 370.64 28.87 369.31 32.7 350.25 32.71 352.64 26.21 383.98 23.66 384.17 23.64 384.38 23.52 390.54 19.92 390.95 19.67 391.07 19.34 396 4.99 396.07 4.81 395.98 4.71 393.2 1.37 393.12 1.27 392.96 1.27 349.29 1.27 349.01 1.27"/><path d="M433.3,16.7H415.05v-.08l2.49-7.26h18.34L434,14.67ZM407.09,1.5l-4.73,3.34-.33.23-.09.27L395.49,24h17l3.9,0h14.35l-1.68,4.86-1.34,3.83H408.65L410,28.85H393.72l-2.78,8-.05.15,0,.1L392.84,41l.07.14h44l.31-.22,5.64-4,.34-.23.09-.28,2.51-7.59,3.51-9.2.11-.33L454.41,5l.06-.18-.09-.11L451.6,1.37l-.07-.09H407.41Z"/></g></svg>