<svg xmlns="http://www.w3.org/2000/svg" viewBox="0 0 366.53 50"><title>73-head</title><g id="Alpine_6_2017_Logotype" data-name="Alpine 6 2017 Logotype"><path d="M339.07,0,320.86,9.21H302.4l-1,3.14h19.5l9.89,6.28L327,30.36l-14.34,7.29H287.34l-9.2-7.3,6.5-20.23a7.37,7.37,0,0,1,3.67-4.3l9.76-5A7.44,7.44,0,0,1,301.44,0ZM311.85,21.53H298.42l-2.21,6.91h13.42Z"/><path d="M91,0l-13,2a12.62,12.62,0,0,0-8,4.61L45,37.89H61.56l17.1-23.11,1.18,9.14H76.29l-6.6,8.92h11l.75,5H97.59Z"/><path d="M161.09,9.11H125.32L112.07,50,125,47.64a6.18,6.18,0,0,0,4.77-4.17L134.4,29.1,138,17.91h12.53L146.93,29.1h-9L135,37.9h16.23l10-4.84L167.38,14Z"/><path d="M112.65,37.9H97.1L107.24,5.84a6.18,6.18,0,0,1,5.12-4.26L125,0Z"/><path d="M187.07,11H171.52L172.9,6a6.17,6.17,0,0,1,5.17-4.46L190.53,0Zm-8.86,27H162.66L170.58,14h15.55Z"/><polygon points="225.76 37.91 210.22 37.91 216.71 17.91 203.18 17.91 196.69 37.91 181.16 37.91 188.94 13.98 198.55 9.11 227.06 9.11 233.54 13.98 225.76 37.91"/><polygon points="272.94 30.35 246.63 30.35 251.13 16.49 264.14 16.5 263.08 19.73 253.62 19.73 251.19 27.11 267.86 27.11 277.03 22.75 279.92 13.8 273.71 9.12 246.32 9.11 237.07 13.8 230.83 33.03 235.93 37.71 282.25 37.71 272.94 30.35"/><path d="M11.78,24.41V17.6h2.68V32H12.13l-3.6-7.48V32H5.83V17.6H8.32Zm13.8-6.81v2.61H20v3.1h4.23v2.58H20v3.53h5.62V32H17.05V17.6Zm16.33,0L38.51,32H35.65l-1.43-7-1.46,7H29.94L26.46,17.6h3l1.89,8.5,1.5-8.5h2.68l1.55,8.5,2-8.5ZM22.5,2.35A22.5,22.5,0,1,0,45,24.85,22.5,22.5,0,0,0,22.5,2.35Z" style="fill:red"/></g></svg>