<svg id="Layer_1" data-name="Layer 1" xmlns="http://www.w3.org/2000/svg" viewBox="0 0 112.25 35.07"><defs><style>.cls-1{fill:#8e9090;}.cls-2{fill:#2e2a25;}.cls-3{fill:#fff;}.cls-4{fill:#022169;}.cls-5{fill:#cf0a2c;}</style></defs><title>bib-header-2017</title><rect class="cls-1" x="1.33" y="5.8" width="109.92" height="14.54" rx="2.14" ry="2.14"/><path class="cls-2" d="M4.86,10H7.93a2.21,2.21,0,0,1,1.63.54,1.31,1.31,0,0,1,.38,1v0A1.38,1.38,0,0,1,9,12.89a1.45,1.45,0,0,1,1.19,1.46v0c0,1-.84,1.65-2.26,1.65H4.86Zm2.66,2.38c.5,0,.79-.17.79-.52v0c0-.32-.26-.51-.75-.51H6.48v1.05Zm.24,2.26c.5,0,.79-.2.79-.55v0c0-.32-.26-.54-.81-.54H6.48v1.1Z"/><path class="cls-2" d="M10.9,13.4V10h1.68v3.32c0,.86.44,1.27,1.1,1.27s1.1-.39,1.1-1.23V10h1.68v3.32a2.5,2.5,0,0,1-2.8,2.78A2.47,2.47,0,0,1,10.9,13.4Z"/><path class="cls-2" d="M17.49,10h1.67v6H17.49Z"/><path class="cls-2" d="M20.25,10h1.66v4.53h2.9V16H20.25Z"/><path class="cls-2" d="M25.72,11.49H23.92V10h5.25v1.45H27.38V16H25.72Z"/><path class="cls-2" d="M32.51,10h1.67v6H32.51Z"/><path class="cls-2" d="M35.27,10h1.55l2.46,3.16V10h1.64v6H39.47l-2.55-3.28V16H35.27Z"/><path class="cls-2" d="M71.73,10H74.8a2.21,2.21,0,0,1,1.63.54,1.31,1.31,0,0,1,.38,1v0a1.38,1.38,0,0,1-.92,1.33,1.45,1.45,0,0,1,1.19,1.46v0c0,1-.84,1.65-2.26,1.65H71.73Zm2.66,2.38c.5,0,.79-.17.79-.52v0c0-.32-.26-.51-.75-.51H73.34v1.05Zm.24,2.26c.5,0,.79-.2.79-.55v0c0-.32-.26-.54-.81-.54H73.34v1.1Z"/><path class="cls-2" d="M77.84,10h2.83a2.61,2.61,0,0,1,1.95.65,1.85,1.85,0,0,1,.53,1.39v0a1.89,1.89,0,0,1-1.23,1.84L83.34,16H81.43l-1.21-1.81H79.5V16H77.84Zm2.75,2.87c.56,0,.89-.27.89-.71v0c0-.47-.34-.71-.9-.71H79.5v1.44Z"/><path class="cls-2" d="M84.19,10h1.67v6H84.19Z"/><path class="cls-2" d="M88.42,11.49H86.62V10h5.25v1.45H90.07V16H88.42Z"/><path class="cls-2" d="M93.9,10h1.6L98,16H96.26L95.83,15H93.52L93.09,16H91.35Zm1.45,3.67L94.68,12,94,13.66Z"/><path class="cls-2" d="M98.66,10h1.67v6H98.66Z"/><path class="cls-2" d="M101.59,10h1.55l2.46,3.16V10h1.64v6h-1.45l-2.55-3.28V16h-1.64Z"/><path class="cls-3" d="M56,25.39A12.32,12.32,0,1,1,68.34,13.07,12.33,12.33,0,0,1,56,25.39Z"/><path class="cls-3" d="M56,1.21A11.86,11.86,0,1,1,44.16,13.07,11.86,11.86,0,0,1,56,1.21m0-.92A12.78,12.78,0,1,0,68.8,13.07,12.8,12.8,0,0,0,56,.28Z"/><path class="cls-4" d="M65.16,20.65l-6.22-3.86v7.77A11.87,11.87,0,0,0,65.16,20.65Z"/><path class="cls-4" d="M64.35,16.25l2.55,1.58a11.78,11.78,0,0,0,.56-1.58Z"/><path class="cls-4" d="M58.94,1.56V9.94l6.53-4A11.87,11.87,0,0,0,58.94,1.56Z"/><path class="cls-4" d="M64.35,10.48h3.26a11.76,11.76,0,0,0-.52-1.7Z"/><path class="cls-4" d="M46.57,5.89l6.53,4V1.56A11.87,11.87,0,0,0,46.57,5.89Z"/><path class="cls-4" d="M53.11,24.57V16.79l-6.22,3.86A11.87,11.87,0,0,0,53.11,24.57Z"/><path class="cls-4" d="M47.69,16.25H44.59a11.78,11.78,0,0,0,.56,1.58Z"/><path class="cls-4" d="M45,8.78a11.76,11.76,0,0,0-.52,1.7h3.26Z"/><path class="cls-5" d="M59.21,10.48h2.3l5-3.08a11.88,11.88,0,0,0-.63-1Z"/><path class="cls-5" d="M66,19.43a11.84,11.84,0,0,0,.6-1.05L63.2,16.25H60.9Z"/><path class="cls-5" d="M52.83,16.25h-2.3l-4.7,2.91a11.88,11.88,0,0,0,.68,1Z"/><path class="cls-5" d="M45.74,7.14a11.82,11.82,0,0,0-.55,1.08l3.66,2.27h2.3Z"/><path class="cls-5" d="M57.92,1.35a11,11,0,0,0-3.82,0v10.1H44.27a11.19,11.19,0,0,0,.09,3.82H54.1v9.5a11,11,0,0,0,3.82,0v-9.5h9.76a11.19,11.19,0,0,0,.09-3.82H57.92Z"/><path class="cls-1" d="M1.38,28.58H3.14l1,3.48,1.16-3.5H6.78l1.16,3.5,1-3.48h1.73l-2,6.06H7.25L6,31.17l-1.2,3.46H3.39Z"/><path class="cls-1" d="M11.58,28.58h1.68v6H11.58Z"/><path class="cls-1" d="M16,30H14.2V28.58h5.28V30h-1.8v4.55H16Z"/><path class="cls-1" d="M20.37,28.58H22v2.25h2.14V28.58h1.67v6H24.18V32.31H22v2.29H20.37Z"/><path class="cls-1" d="M29.64,28.58h2.58c1.52,0,2.5.78,2.5,2.11v0c0,1.42-1.09,2.17-2.59,2.17H31.3v1.72H29.64Zm2.46,3c.59,0,1-.31,1-.78v0c0-.52-.36-.79-1-.79H31.3v1.59Z"/><path class="cls-1" d="M35.59,28.58h2.84a2.62,2.62,0,0,1,2,.65,1.86,1.86,0,0,1,.53,1.4v0a1.9,1.9,0,0,1-1.24,1.85l1.43,2.1H39.2L38,32.77h-.73v1.82H35.59Zm2.77,2.89c.57,0,.89-.27.89-.71v0c0-.47-.34-.71-.9-.71H37.26v1.44Z"/><path class="cls-1" d="M42,28.58h1.68v6H42Z"/><path class="cls-1" d="M44.92,28.58h2.32c2.15,0,3.39,1.24,3.39,3v0c0,1.73-1.26,3-3.43,3H44.92Zm2.34,4.53a1.47,1.47,0,0,0,1.66-1.52v0a1.48,1.48,0,0,0-1.66-1.52h-.68v3.06Z"/><path class="cls-1" d="M51.66,28.58H56.5V30H53.31v.91H56.2v1.31H53.31v1h3.23v1.42H51.66Z"/><path class="cls-1" d="M59.66,33.7l.93-1.11a3.1,3.1,0,0,0,1.95.72c.45,0,.69-.15.69-.41v0c0-.25-.2-.39-1-.58-1.28-.29-2.27-.65-2.27-1.89v0c0-1.12.88-1.92,2.33-1.92a3.79,3.79,0,0,1,2.47.8l-.83,1.18a3,3,0,0,0-1.68-.59c-.4,0-.6.17-.6.39v0c0,.28.21.4,1,.58,1.38.3,2.24.75,2.24,1.87v0c0,1.23-1,2-2.43,2A4.2,4.2,0,0,1,59.66,33.7Z"/><path class="cls-1" d="M65.93,28.58H67.6v6H65.93Z"/><path class="cls-1" d="M68.87,28.58h1.55l2.47,3.18V28.58h1.65v6H73.09l-2.57-3.3v3.3H68.87Z"/><path class="cls-1" d="M75.58,31.6v0a3.09,3.09,0,0,1,3.17-3.13,3,3,0,0,1,2.55,1.25l-1.25,1a1.61,1.61,0,0,0-1.31-.7,1.49,1.49,0,0,0-1.43,1.59v0a1.49,1.49,0,0,0,1.43,1.61,1.64,1.64,0,0,0,1.36-.73l1.25.89a3.17,3.17,0,0,1-5.76-1.75Z"/><path class="cls-1" d="M82.23,28.58h4.84V30H83.88v.91h2.89v1.31H83.88v1h3.23v1.42H82.23Z"/><path class="cls-1" d="M91.56,30.09l-1,.23L90.22,29l1.76-.5H93.2v6.06H91.56Z"/><path class="cls-1" d="M94.41,34l.78-1.15a2,2,0,0,0,1.29.48c.69,0,1.06-.48,1.13-1.25a1.81,1.81,0,0,1-1.27.49,1.85,1.85,0,0,1-2-1.9v0a2.2,2.2,0,0,1,2.4-2.19,2.36,2.36,0,0,1,1.85.7,3,3,0,0,1,.72,2.22v0c0,2-1,3.31-2.78,3.31A3.25,3.25,0,0,1,94.41,34Zm3.23-3.41v0a.8.8,0,0,0-.86-.82.78.78,0,0,0-.84.81v0a.79.79,0,0,0,.86.79A.78.78,0,0,0,97.64,30.59Z"/><path class="cls-1" d="M100,32.93v0a1.48,1.48,0,0,1,1-1.44,1.43,1.43,0,0,1-.83-1.31v0c0-1,.92-1.68,2.27-1.68s2.27.71,2.27,1.68v0a1.43,1.43,0,0,1-.82,1.31,1.5,1.5,0,0,1,1,1.43v0c0,1.07-1,1.77-2.47,1.77S100,34,100,32.93Zm3.34-.16v0c0-.39-.36-.65-.87-.65s-.87.27-.87.65v0c0,.36.31.68.87.68S103.39,33.13,103.39,32.77Zm-.13-2.41v0a.75.75,0,0,0-1.48,0v0a.67.67,0,0,0,.74.66A.67.67,0,0,0,103.26,30.36Z"/><path class="cls-1" d="M105.63,32.93v0a1.48,1.48,0,0,1,1-1.44,1.43,1.43,0,0,1-.83-1.31v0c0-1,.92-1.68,2.27-1.68s2.27.71,2.27,1.68v0a1.43,1.43,0,0,1-.82,1.31,1.5,1.5,0,0,1,1,1.43v0c0,1.07-1,1.77-2.47,1.77S105.63,34,105.63,32.93Zm3.34-.16v0c0-.39-.36-.65-.87-.65s-.87.27-.87.65v0c0,.36.31.68.87.68S109,33.13,109,32.77Zm-.13-2.41v0a.75.75,0,0,0-1.48,0v0a.67.67,0,0,0,.74.66A.67.67,0,0,0,108.84,30.36Z"/></svg>