<svg xmlns="http://www.w3.org/2000/svg" viewBox="0 0 400 85.78"><title>orange-orange-logo-2017-021</title><g id="Notation"><path d="M167.91,61h8.44c1.46,0,2.19.94,1.77,2.22A3.06,3.06,0,0,1,176.65,65a1.5,1.5,0,0,1,.49,1.86,3.42,3.42,0,0,1-3.21,2.22h-8.6Zm6.62,6.17c.29,0,.49-.2.63-.61s0-.61-.25-.61h-6.53L168,67.21Zm.84-3.09c.29,0,.49-.19.61-.59s.06-.61-.23-.61h-6.38l-.38,1.2Z" style="fill:#ff5000"/><path d="M197.44,61h2.07l-2.58,8h-2.07Z" style="fill:#ff5000"/><path d="M217.94,61H220l-1,3.08h1L224.28,61h2.81L221.5,65.1l3.17,4h-2.51L219.72,66h-1.31l-1,3.09h-2.07Z" style="fill:#ff5000"/><path d="M244.37,61h9.46l-.6,1.87h-7.39l-.38,1.2h6.91L251.75,66h-6.91l-.38,1.22h7.39l-.6,1.87h-9.46Zm0,0h9.46l-.6,1.87h-7.39" style="fill:#ff5000"/><path d="M270.11,67.21h7.65c.29,0,.49-.2.63-.61s0-.61-.25-.61h-5.57a1.73,1.73,0,0,1-1.72-2.47A3.69,3.69,0,0,1,274.18,61h7.65l-.6,1.87h-7.65q-.44,0-.65.61c-.12.39,0,.59.27.59h5.57a1.73,1.73,0,0,1,1.7,2.48,3.67,3.67,0,0,1-3.3,2.48h-7.65Z" style="fill:#ff5000"/></g><g id="Layer_3" data-name="Layer 3"><path d="M399.64,45.84c-.87-1.44-2.74-1.39-4.2-.57a34.53,34.53,0,0,1-16.37,4.63c-7.32,0-13.68-3.33-13.74-11.17H396c3.84,0,4.36-2.13,3.43-4.37-2.93-7.13-12-11.21-24.87-11.22h0c-9.45,0-16.15,1.88-21.11,5.91A14.36,14.36,0,0,0,348,40.34a15.62,15.62,0,0,0,5.65,12C358,56,364.9,57.77,373.87,57.77c14.19,0,22-6,24.52-7.92C400.24,48.43,400.25,46.85,399.64,45.84ZM383.23,34H365.92a9.5,9.5,0,0,1,17.31,0Z" style="fill:#ff5000"/><path d="M352.23,54.1A17.34,17.34,0,0,1,348,49a160.22,160.22,0,0,0-27.66-.69c-1,.08-1.69-.38-1.69-1.11s.53-1.1,1.78-1.1c.27,0,4,.1,5.39.1,11.33,0,17.22-3,20-5.17,0-.23,0-.44,0-.66v0h0a13.42,13.42,0,0,1,.39-3.59,16.17,16.17,0,0,1,2.23-5.32,9.69,9.69,0,0,0-2.64-3,24.06,24.06,0,0,1,4.46.56h.1a18.25,18.25,0,0,1,1.74-1.64,25.1,25.1,0,0,1,6.62-3.85c-3.2-1.33-12.87.4-18.47.4a50.59,50.59,0,0,1-6.24-.45h-.13a79.8,79.8,0,0,0-8.72-.51c-9.26,0-17.77,2.53-21.68,6.44A7.85,7.85,0,0,0,300.92,35c0,3.63,3.33,6.84,7,8.33-3.76.73-6.34,3-6.34,5.74,0,2.27,1.92,4.19,4.79,5.17-4.5.86-9.53,3-9.53,6.71,0,4.59,7.18,9.23,23.23,9.23,21.38,0,35.91-5.27,37.49-13A21.79,21.79,0,0,1,352.23,54.1ZM321,29.09c.82-.67,1.79-.91,4.21-.9,2.11,0,3.16.16,4.08.9,1.1.88,1.59,2.43,1.59,5,0,3.08-.5,4.8-1.68,5.76-1.35,1.11-3.32,1-4,1a6.13,6.13,0,0,1-4.06-1c-1.18-1-1.68-2.68-1.68-5.76C319.4,31.52,319.89,30,321,29.09Zm2.92,35c-7.22.06-10.6-1.62-9.95-4.54.56-2.48,4.6-3.38,16-3.38,7.36,0,13.3.4,13.3,2.27C343.29,61.42,333.4,64,323.91,64.11Z" style="fill:#ff5000"/><path d="M296.24,56.69a12.65,12.65,0,0,1,4.8-3.24l.62-.25c-1.17-.9-2.82-1.09-4.66-1.19V30.63c0-4.16-5.68-7.44-15.46-7.44-6.07,0-9.7,1.61-13.94,4.61,0,0,0-1.08,0-1.08,0-1.81-1.88-3.52-4.37-3.52a10,10,0,0,0-1.84.16c-.34.07-14.93,3.39-15.57,3.54-1.78.41-2.61,1.12-2.61,2.26v1.8l7.75.49V49.51l3.19,2.06A33.21,33.21,0,0,1,247,56.68h25.87V54.37c0-1.18-1.83-2.13-4.46-2.31L267.6,52V36.06a2.84,2.84,0,0,1,1.21-2.19c2.7-2.25,8.22-3.22,9.08-3.22h0c1.64,0,2.44,1,2.44,3.05,0,0,0,14.78,0,18.31-3.1.11-5.28,1.06-5.28,2.37v2.32Z" style="fill:#ff5000"/><path d="M250.66,51.8l-3.87-2.5a11.81,11.81,0,0,1-5.31,1.59.74.74,0,0,1-.68-.7V33.28c0-7.1-8.77-10.09-18.2-10.09h0c-20.39,0-27.9,8.91-27.87,11.73,0,1.49,2.63,2.16,6.53,2.16A44.92,44.92,0,0,0,211.74,36c.46-4.18,2.37-7.12,6.82-7.12,1.4,0,5.6.27,5.6,3.68V37l-.64.07c-20,2.3-30.19,6.35-30.19,12.05a6.9,6.9,0,0,0,2.56,5.61c2.89,2.35,6.52,3,11.91,3a36.75,36.75,0,0,0,17.42-4c2.3,2.45,4.79,4,10.31,4C242.3,57.77,248.56,53.59,250.66,51.8Zm-26.51-5.92c0,2.08-4.65,4.47-9.48,4.47a5.31,5.31,0,0,1-3.23-.68,1.87,1.87,0,0,1-.69-1.54c0-2.83,4.4-4.94,12.38-5.93l1-.12Z" style="fill:#ff5000"/><path d="M199.22,25.28a19.22,19.22,0,0,0-8.33-2c-4.9,0-8,2.1-11.42,4.34,0-.26,0-.52,0-.87,0-2.06-1.91-3.5-4.64-3.5a7,7,0,0,0-1.44.13c-.54.11-15.06,3.39-15.69,3.54-1.78.41-2.61,1.13-2.62,2.26v1.79l7.77.5V51.94c-1.24.09-3.15.31-4.37.5a22.94,22.94,0,0,1-2.12,4.27H190V54.29c0-1-1-1.63-6.59-2.07-2-.16-2.89-.25-4-.28V37.51c0-1.69.81-2.52,2.35-3.62a27.79,27.79,0,0,1,2.63-1.69,2.61,2.61,0,0,1,1.31-.27,3.15,3.15,0,0,1,1.86.73,14.23,14.23,0,0,0,4.83,2.56c0-2.1,1.22-4.47,4.27-6.94a26.2,26.2,0,0,1,3.65-2.49Z" style="fill:#ff5000"/><path d="M75.55,45.18c0,14.24,14.57,24.76,40.78,24.76,26,0,40.78-10.52,40.78-24.76s-14.77-24.76-40.78-24.76C90.12,20.41,75.55,30.94,75.55,45.18Zm20.37,0c0-10.71,8.58-18.48,20.41-18.48s20.41,7.77,20.41,18.48-8.58,18.48-20.41,18.48S95.92,55.89,95.92,45.18Z" style="fill:#ff5000"/><g id="Epanded"><path d="M10.37,34.23,21.5,26.14l11.12,8.09L28.38,21.15l11.14-8.1H25.73L21.5,0,17.25,13.07H3.5l11.12,8.11ZM21.48,14.17a4.8,4.8,0,1,1-4.8,4.8A4.8,4.8,0,0,1,21.48,14.17ZM73,45.18A21.62,21.62,0,0,1,78.5,30.63,40.62,40.62,0,0,0,28,6.55l.76,2.32H52.39L33.29,22.74,40.6,45.19,21.51,31.34,2.41,45.19l7.3-22.44-2-1.43A40.6,40.6,0,1,0,78.5,59.73,21.61,21.61,0,0,1,73,45.18Z" style="fill:#ff5000"/></g></g></svg>